<svg width="220" height="46" viewBox="0 0 220 46" fill="none" xmlns="http://www.w3.org/2000/svg">
<path d="M8.94971 18.1199L29.4182 9.00797" stroke="#82C2EB" stroke-width="0.9073" stroke-miterlimit="10"/>
<path d="M53.1528 26.535H50.3266V22.5906H47.387V26.535H44.5608V16.5599H47.387V20.2777H50.3266V16.5599H53.1528V26.535Z" fill="#010101"/>
<path d="M54.0444 21.6225C54.0444 20.7376 54.1794 19.9627 54.4527 19.2995C54.7243 18.6363 55.0809 18.083 55.5242 17.6397C55.9658 17.1965 56.4757 16.8615 57.0506 16.6349C57.6255 16.4083 58.2171 16.2933 58.8237 16.2933C60.2401 16.2933 61.3583 16.7265 62.1815 17.5931C63.003 18.4596 63.4146 19.7327 63.4146 21.4142C63.4146 21.5775 63.408 21.7591 63.3963 21.9541C63.383 22.1507 63.3713 22.324 63.358 22.4756H56.9473C57.0106 23.0572 57.2823 23.5188 57.7622 23.8604C58.2421 24.2021 58.887 24.372 59.6969 24.372C60.2151 24.372 60.7234 24.3254 61.2233 24.2304C61.7232 24.1354 62.1298 24.0187 62.4464 23.8788L62.8264 26.1734C62.6748 26.2501 62.4731 26.3251 62.2198 26.4017C61.9665 26.4767 61.6849 26.5433 61.375 26.6C61.065 26.6567 60.7334 26.705 60.3801 26.7416C60.0268 26.78 59.6719 26.7983 59.3186 26.7983C58.4204 26.7983 57.6405 26.665 56.9773 26.4C56.3141 26.1351 55.7642 25.7701 55.3276 25.3102C54.891 24.8486 54.5693 24.302 54.361 23.6705C54.1494 23.0389 54.0444 22.3557 54.0444 21.6225ZM60.6817 20.5426C60.6684 20.3027 60.6284 20.0677 60.5584 19.8411C60.4884 19.6144 60.3818 19.4111 60.2368 19.2345C60.0918 19.0579 59.9085 18.9129 59.6869 18.7979C59.4652 18.6846 59.1903 18.6263 58.862 18.6263C58.5454 18.6263 58.2738 18.6812 58.0471 18.7879C57.8188 18.8962 57.6305 19.0379 57.4789 19.2145C57.3273 19.3911 57.2106 19.5961 57.1273 19.8311C57.0456 20.0644 56.9856 20.3027 56.9473 20.5426H60.6817Z" fill="#010101"/>
<path d="M73.388 16.56V26.5351H70.5434C70.5434 25.9035 70.5501 25.2736 70.5618 24.6487C70.5734 24.0221 70.5867 23.4439 70.6001 22.914C70.6134 22.3841 70.6284 21.9191 70.6467 21.5192C70.6651 21.1209 70.6751 20.8276 70.6751 20.6377C70.3085 21.1559 69.9419 21.6808 69.5752 22.2124C69.2086 22.7423 68.857 23.2656 68.5221 23.7772C68.1871 24.2888 67.8705 24.7787 67.5739 25.2469C67.2756 25.7152 67.014 26.1451 66.7873 26.5367H64.3027V16.5616H67.129C67.129 17.1932 67.1256 17.7981 67.1206 18.373C67.114 18.9479 67.104 19.4695 67.0923 19.9378C67.0806 20.406 67.0673 20.8126 67.054 21.1609C67.0406 21.5092 67.0356 21.7775 67.0356 21.9674C67.7938 20.8543 68.4937 19.8561 69.132 18.9713C69.7702 18.0864 70.3934 17.2832 71 16.5633H73.388V16.56ZM68.8737 15.1935C68.4687 15.1935 68.0805 15.1335 67.7072 15.0135C67.3339 14.8936 66.9956 14.7169 66.6924 14.4836C66.3891 14.2487 66.1391 13.9654 65.9441 13.6304C65.7475 13.2955 65.6309 12.9139 65.5925 12.4839L67.5456 11.9724C67.6472 12.4523 67.8138 12.7939 68.0488 12.9972C68.2838 13.1988 68.5571 13.3005 68.8737 13.3005C69.202 13.3005 69.4836 13.2088 69.7186 13.0255C69.9518 12.8422 70.1202 12.4973 70.2218 11.9923L72.1565 12.5039C72.1182 12.9339 72.0015 13.3172 71.8049 13.6521C71.6083 13.987 71.3616 14.2687 71.065 14.4953C70.7684 14.7236 70.4301 14.8969 70.0502 15.0169C69.6719 15.1335 69.2786 15.1935 68.8737 15.1935Z" fill="#010101"/>
<path d="M84.0262 21.5473C84.0262 22.3189 83.9312 23.0204 83.7412 23.652C83.5513 24.2836 83.273 24.8285 82.9064 25.2834C82.5397 25.7383 82.0848 26.0933 81.5416 26.3449C80.9983 26.5982 80.3718 26.7232 79.6635 26.7232C79.2719 26.7232 78.9053 26.6849 78.5637 26.6099C78.2221 26.5332 77.8938 26.4266 77.5772 26.2866V30.041H74.751V16.8981C75.0043 16.8231 75.2942 16.7497 75.6242 16.6798C75.9525 16.6098 76.2974 16.5498 76.6573 16.4998C77.0173 16.4498 77.3839 16.4081 77.7572 16.3765C78.1304 16.3448 78.4871 16.3298 78.8287 16.3298C79.6502 16.3298 80.3834 16.4531 81.0283 16.6998C81.6732 16.9464 82.2165 17.2947 82.6597 17.7429C83.1013 18.1912 83.4396 18.7378 83.6746 19.3827C83.9095 20.0292 84.0262 20.7508 84.0262 21.5473ZM81.1433 21.6223C81.1433 20.7508 80.9467 20.0509 80.5551 19.5277C80.1635 19.0027 79.5819 18.7411 78.8103 18.7411C78.557 18.7411 78.3237 18.7511 78.1088 18.7694C77.8938 18.7878 77.7172 18.8111 77.5772 18.8361V23.937C77.7538 24.0503 77.9855 24.1453 78.2704 24.2219C78.5554 24.2986 78.842 24.3352 79.1336 24.3352C80.4734 24.3336 81.1433 23.4304 81.1433 21.6223Z" fill="#010101"/>
<path d="M94.248 21.5275C94.248 22.3107 94.1346 23.0289 93.9063 23.6805C93.678 24.332 93.3498 24.8886 92.9198 25.3485C92.4899 25.8101 91.975 26.1667 91.3734 26.42C90.7735 26.6733 90.1003 26.8 89.3537 26.8C88.6205 26.8 87.9539 26.6733 87.3524 26.42C86.7525 26.1667 86.2359 25.8101 85.8059 25.3485C85.376 24.8869 85.0411 24.332 84.8011 23.6805C84.5611 23.0289 84.4412 22.3124 84.4412 21.5275C84.4412 20.7443 84.5645 20.0294 84.8111 19.3845C85.0577 18.7396 85.3993 18.1897 85.8359 17.7347C86.2725 17.2798 86.7908 16.9249 87.3907 16.6732C87.9906 16.4199 88.6455 16.2933 89.3537 16.2933C90.0736 16.2933 90.7352 16.4199 91.3351 16.6732C91.935 16.9265 92.4516 17.2798 92.8815 17.7347C93.3114 18.1897 93.6464 18.7396 93.8863 19.3845C94.128 20.0294 94.248 20.7443 94.248 21.5275ZM91.3651 21.5275C91.3651 20.6543 91.1918 19.9694 90.8435 19.4694C90.4952 18.9695 90.0003 18.7196 89.3554 18.7196C88.7105 18.7196 88.2106 18.9695 87.8573 19.4694C87.504 19.9694 87.3274 20.6543 87.3274 21.5275C87.3274 22.4007 87.504 23.0922 87.8573 23.6038C88.2106 24.1154 88.7105 24.372 89.3554 24.372C90.0003 24.372 90.4969 24.1154 90.8435 23.6038C91.1918 23.0922 91.3651 22.4007 91.3651 21.5275Z" fill="#010101"/>
<path d="M103.197 18.8729H100.01V26.535H97.1842V18.8729H93.998V16.5599H103.195V18.8729H103.197Z" fill="#010101"/>
<path d="M112.889 21.5473C112.889 22.3189 112.794 23.0204 112.604 23.652C112.414 24.2836 112.135 24.8285 111.769 25.2834C111.402 25.7383 110.947 26.0933 110.404 26.3449C109.861 26.5982 109.234 26.7232 108.526 26.7232C108.134 26.7232 107.768 26.6849 107.426 26.6099C107.084 26.5332 106.756 26.4266 106.44 26.2866V30.041H103.613V16.8981C103.867 16.8231 104.157 16.7497 104.486 16.6798C104.815 16.6098 105.16 16.5498 105.52 16.4998C105.88 16.4498 106.246 16.4081 106.619 16.3765C106.993 16.3448 107.349 16.3298 107.691 16.3298C108.513 16.3298 109.246 16.4531 109.891 16.6998C110.536 16.9464 111.079 17.2947 111.522 17.7429C111.964 18.1912 112.302 18.7378 112.537 19.3827C112.77 20.0292 112.889 20.7508 112.889 21.5473ZM110.006 21.6223C110.006 20.7508 109.809 20.0509 109.417 19.5277C109.026 19.0027 108.444 18.7411 107.673 18.7411C107.419 18.7411 107.186 18.7511 106.971 18.7694C106.756 18.7878 106.579 18.8111 106.44 18.8361V23.937C106.616 24.0503 106.848 24.1453 107.133 24.2219C107.418 24.2986 107.704 24.3352 107.996 24.3352C109.334 24.3336 110.006 23.4304 110.006 21.6223Z" fill="#010101"/>
<path d="M113.305 21.6225C113.305 20.7376 113.44 19.9627 113.713 19.2995C113.985 18.6363 114.341 18.083 114.785 17.6397C115.226 17.1965 115.736 16.8615 116.311 16.6349C116.886 16.4083 117.478 16.2933 118.084 16.2933C119.501 16.2933 120.619 16.7265 121.442 17.5931C122.264 18.4596 122.675 19.7327 122.675 21.4142C122.675 21.5775 122.668 21.7591 122.657 21.9541C122.643 22.1507 122.632 22.324 122.618 22.4756H116.208C116.271 23.0572 116.543 23.5188 117.023 23.8604C117.503 24.2021 118.148 24.372 118.957 24.372C119.476 24.372 119.984 24.3254 120.484 24.2304C120.984 24.1354 121.39 24.0187 121.707 23.8788L122.087 26.1734C121.935 26.2501 121.734 26.3251 121.48 26.4017C121.227 26.4767 120.945 26.5433 120.635 26.6C120.325 26.6567 119.994 26.705 119.641 26.7416C119.287 26.78 118.932 26.7983 118.579 26.7983C117.681 26.7983 116.901 26.665 116.238 26.4C115.575 26.1351 115.025 25.7701 114.588 25.3102C114.151 24.8486 113.83 24.302 113.622 23.6705C113.408 23.0389 113.305 22.3557 113.305 21.6225ZM119.942 20.5426C119.929 20.3027 119.889 20.0677 119.819 19.8411C119.749 19.6144 119.642 19.4111 119.497 19.2345C119.352 19.0579 119.169 18.9129 118.947 18.7979C118.726 18.6846 118.451 18.6263 118.123 18.6263C117.806 18.6263 117.534 18.6812 117.308 18.7879C117.079 18.8962 116.891 19.0379 116.739 19.2145C116.588 19.3911 116.471 19.5961 116.389 19.8311C116.308 20.0644 116.248 20.3027 116.209 20.5426H119.942Z" fill="#010101"/>
<path d="M132.155 26.535H129.329V22.5906H126.39V26.535H123.563V16.5599H126.39V20.2777H129.329V16.5599H132.155V26.535Z" fill="#010101"/>
<path d="M137.105 16.2933C137.939 16.2933 138.634 16.3883 139.191 16.5782C139.747 16.7682 140.192 17.0398 140.527 17.3931C140.862 17.7481 141.099 18.1763 141.239 18.6829C141.377 19.1878 141.447 19.7511 141.447 20.371V26.2501C141.042 26.3384 140.481 26.4434 139.759 26.5633C139.039 26.6833 138.166 26.7433 137.143 26.7433C136.498 26.7433 135.913 26.6867 135.388 26.5717C134.863 26.4584 134.412 26.2717 134.032 26.0118C133.652 25.7535 133.362 25.4152 133.159 24.9969C132.957 24.5803 132.855 24.0671 132.855 23.4605C132.855 22.8789 132.972 22.3857 133.207 21.9807C133.44 21.5758 133.753 21.2542 134.145 21.0142C134.537 20.7742 134.985 20.6009 135.491 20.4926C135.998 20.3843 136.521 20.331 137.066 20.331C137.433 20.331 137.759 20.3477 138.043 20.3777C138.328 20.4093 138.558 20.451 138.736 20.501V20.236C138.736 19.7561 138.591 19.3695 138.299 19.0795C138.008 18.7896 137.503 18.6429 136.783 18.6429C136.303 18.6429 135.828 18.6779 135.36 18.7479C134.892 18.8179 134.487 18.9162 134.147 19.0412L133.787 16.7649C133.95 16.7149 134.157 16.6599 134.403 16.6032C134.65 16.5466 134.918 16.4949 135.21 16.4516C135.5 16.4066 135.806 16.3699 136.13 16.3383C136.45 16.31 136.776 16.2933 137.105 16.2933ZM137.333 24.562C137.611 24.562 137.876 24.5553 138.129 24.5437C138.383 24.532 138.584 24.512 138.736 24.487V22.344C138.623 22.319 138.451 22.294 138.224 22.269C137.996 22.244 137.788 22.2307 137.598 22.2307C137.333 22.2307 137.083 22.2473 136.85 22.279C136.615 22.3107 136.41 22.3707 136.233 22.459C136.056 22.5473 135.916 22.6673 135.816 22.8189C135.715 22.9706 135.665 23.1605 135.665 23.3872C135.665 23.8304 135.813 24.1354 136.11 24.307C136.406 24.477 136.813 24.562 137.333 24.562Z" fill="#010101"/>
<path d="M141.581 26.535C142.214 25.5085 142.867 24.5653 143.539 23.7038C144.21 22.8423 144.927 22.0074 145.687 21.1958C144.888 20.376 144.162 19.5711 143.51 18.7829C142.857 17.9947 142.277 17.2531 141.771 16.5599H145.077C145.405 17.0248 145.8 17.5614 146.26 18.1713C146.72 18.7812 147.323 19.5511 148.068 20.481V16.5599H150.817V20.4943C151.589 19.5744 152.202 18.8012 152.657 18.178C153.112 17.5531 153.504 17.0148 153.834 16.5599H157.095C156.628 17.2798 156.08 18.0197 155.448 18.7829C154.818 19.5461 154.08 20.3443 153.235 21.1775C153.689 21.6591 154.095 22.1107 154.455 22.5356C154.815 22.9606 155.155 23.3805 155.477 23.7988C155.798 24.2171 156.103 24.6503 156.395 25.1002C156.685 25.5502 156.988 26.0284 157.303 26.535H154.16C153.21 25.1019 152.097 23.5922 150.817 22.0074V26.535H148.068V22.0407C147.423 22.8973 146.81 23.7021 146.228 24.457C145.647 25.2119 145.148 25.9051 144.73 26.5333H141.581V26.535Z" fill="#010101"/>
<path d="M156.79 21.6225C156.79 20.7376 156.925 19.9627 157.198 19.2995C157.47 18.6363 157.826 18.083 158.27 17.6397C158.711 17.1965 159.221 16.8615 159.796 16.6349C160.371 16.4083 160.962 16.2933 161.569 16.2933C162.985 16.2933 164.104 16.7265 164.927 17.5931C165.748 18.4596 166.16 19.7327 166.16 21.4142C166.16 21.5775 166.153 21.7591 166.142 21.9541C166.128 22.1507 166.117 22.324 166.103 22.4756H159.694C159.758 23.0572 160.029 23.5188 160.509 23.8604C160.989 24.2021 161.634 24.372 162.444 24.372C162.962 24.372 163.47 24.3254 163.97 24.2304C164.47 24.1354 164.877 24.0187 165.193 23.8788L165.573 26.1734C165.422 26.2501 165.22 26.3251 164.967 26.4017C164.714 26.4767 164.432 26.5433 164.122 26.6C163.812 26.6567 163.48 26.705 163.127 26.7416C162.774 26.78 162.419 26.7983 162.066 26.7983C161.167 26.7983 160.388 26.665 159.724 26.4C159.061 26.1351 158.511 25.7701 158.075 25.3102C157.638 24.8486 157.316 24.302 157.108 23.6705C156.893 23.0389 156.79 22.3557 156.79 21.6225ZM163.427 20.5426C163.414 20.3027 163.374 20.0677 163.304 19.8411C163.234 19.6144 163.127 19.4111 162.982 19.2345C162.837 19.0579 162.654 18.9129 162.432 18.7979C162.211 18.6846 161.936 18.6263 161.607 18.6263C161.291 18.6263 161.019 18.6812 160.793 18.7879C160.564 18.8962 160.376 19.0379 160.224 19.2145C160.073 19.3911 159.956 19.5961 159.873 19.8311C159.791 20.0644 159.731 20.3027 159.693 20.5426H163.427Z" fill="#010101"/>
<path d="M176.324 21.5473C176.324 22.3189 176.229 23.0204 176.039 23.652C175.849 24.2836 175.57 24.8285 175.204 25.2834C174.837 25.7383 174.382 26.0933 173.839 26.3449C173.296 26.5982 172.669 26.7232 171.961 26.7232C171.569 26.7232 171.203 26.6849 170.861 26.6099C170.519 26.5332 170.191 26.4266 169.875 26.2866V30.041H167.048V16.8981C167.302 16.8231 167.592 16.7497 167.922 16.6798C168.25 16.6098 168.595 16.5498 168.955 16.4998C169.315 16.4498 169.681 16.4081 170.055 16.3765C170.428 16.3448 170.784 16.3298 171.126 16.3298C171.948 16.3298 172.681 16.4531 173.326 16.6998C173.971 16.9464 174.514 17.2947 174.957 17.7429C175.399 18.1912 175.737 18.7378 175.972 19.3827C176.205 20.0292 176.324 20.7508 176.324 21.5473ZM173.441 21.6223C173.441 20.7508 173.244 20.0509 172.852 19.5277C172.461 19.0027 171.879 18.7411 171.108 18.7411C170.854 18.7411 170.621 18.7511 170.406 18.7694C170.191 18.7878 170.015 18.8111 169.875 18.8361V23.937C170.051 24.0503 170.283 24.1453 170.568 24.2219C170.853 24.2986 171.139 24.3352 171.431 24.3352C172.769 24.3336 173.441 23.4304 173.441 21.6223Z" fill="#010101"/>
<path d="M180.04 20.106C180.216 20.056 180.448 20.0144 180.733 19.9827C181.018 19.9511 181.343 19.9361 181.709 19.9361C182.291 19.9361 182.837 20.006 183.349 20.1444C183.861 20.2843 184.307 20.496 184.685 20.7792C185.065 21.0642 185.365 21.4242 185.587 21.8608C185.809 22.2974 185.919 22.8056 185.919 23.3872C185.919 23.9687 185.817 24.472 185.615 24.8953C185.414 25.3185 185.122 25.6668 184.742 25.9384C184.364 26.2101 183.911 26.4117 183.386 26.545C182.861 26.6783 182.276 26.7433 181.631 26.7433C180.796 26.7433 180.031 26.7017 179.336 26.62C178.641 26.5384 177.933 26.4084 177.212 26.2317V16.5599H180.038V20.106H180.04ZM181.443 24.562C181.961 24.562 182.369 24.4637 182.666 24.267C182.962 24.0721 183.111 23.7521 183.111 23.3089C183.111 23.0822 183.061 22.8889 182.959 22.7306C182.857 22.5723 182.719 22.4457 182.543 22.3507C182.366 22.2557 182.161 22.189 181.926 22.1524C181.693 22.1141 181.443 22.0957 181.178 22.0957C180.988 22.0957 180.779 22.109 180.551 22.134C180.325 22.159 180.153 22.1857 180.04 22.2107V24.487C180.191 24.512 180.393 24.532 180.646 24.5437C180.899 24.5553 181.164 24.562 181.443 24.562ZM190.185 26.535H187.358V16.5599H190.185V26.535Z" fill="#010101"/>
<path d="M206.232 21.3009C206.232 22.0724 206.137 22.774 205.947 23.4056C205.757 24.0371 205.479 24.5821 205.112 25.037C204.746 25.4919 204.291 25.8469 203.748 26.0985C203.204 26.3518 202.578 26.4768 201.87 26.4768C201.478 26.4768 201.111 26.4384 200.77 26.3634C200.428 26.2868 200.1 26.1801 199.783 26.0402V29.7946H196.957V16.6516C197.21 16.5767 197.5 16.5033 197.83 16.4333C198.159 16.3633 198.503 16.3034 198.863 16.2534C199.223 16.2034 199.59 16.1617 199.963 16.1301C200.337 16.0984 200.693 16.0834 201.035 16.0834C201.856 16.0834 202.589 16.2067 203.234 16.4533C203.879 16.7 204.423 17.0482 204.866 17.4965C205.307 17.9448 205.646 18.4913 205.881 19.1362C206.114 19.7845 206.232 20.5044 206.232 21.3009ZM203.349 21.3776C203.349 20.506 203.153 19.8061 202.761 19.2829C202.37 18.758 201.788 18.4963 201.016 18.4963C200.763 18.4963 200.53 18.5063 200.315 18.5247C200.1 18.543 199.923 18.5663 199.783 18.5913V23.6922C199.96 23.8055 200.192 23.9005 200.476 23.9772C200.761 24.0538 201.048 24.0905 201.34 24.0905C202.678 24.0888 203.349 23.1856 203.349 21.3776Z" fill="url(#paint0_linear_91_940)"/>
<path d="M195.217 24.7902C195.217 25.7484 194.441 26.525 193.483 26.525C192.524 26.525 191.75 25.7484 191.75 24.7902C191.75 23.832 192.526 23.0555 193.483 23.0555C194.441 23.0555 195.217 23.8337 195.217 24.7902Z" fill="#76C591"/>
<path d="M218.415 17.7929C217.929 17.388 217.362 17.073 216.719 16.8447C216.074 16.6181 215.397 16.4714 214.689 16.4081V13.7785H211.94V16.4081C211.03 16.5098 210.24 16.7014 209.57 16.9864C208.9 17.2713 208.35 17.6313 207.92 18.0662C207.49 18.5028 207.172 18.9994 206.962 19.5543C206.754 20.1109 206.649 20.7058 206.649 21.3374C206.649 21.9939 206.759 22.6155 206.98 23.1954C207.202 23.777 207.534 24.2886 207.975 24.7318C208.417 25.1734 208.972 25.535 209.635 25.8117C210.298 26.0899 211.066 26.2616 211.94 26.3232V29.7944H214.689V26.3232C215.409 26.2599 216.092 26.1183 216.737 25.8966C217.382 25.675 217.944 25.3634 218.425 24.9585C218.905 24.5535 219.288 24.0553 219.573 23.4604C219.858 22.8671 220 22.1639 220 21.3557C220 20.5591 219.858 19.8676 219.573 19.2793C219.288 18.6928 218.902 18.1978 218.415 17.7929ZM211.94 23.9369C211.143 23.8486 210.536 23.6087 210.12 23.217C209.703 22.8254 209.493 22.2122 209.493 21.3774C209.493 20.5058 209.712 19.8659 210.148 19.4627C210.585 19.0577 211.181 18.8244 211.94 18.7611V23.9369ZM216.917 22.5905C216.772 22.9188 216.582 23.1821 216.349 23.377C216.114 23.5737 215.852 23.7153 215.562 23.8036C215.272 23.8919 214.981 23.9369 214.689 23.9369V18.7594C214.979 18.7727 215.271 18.8227 215.562 18.9111C215.852 18.9994 216.116 19.141 216.349 19.3377C216.582 19.5343 216.772 19.7959 216.917 20.1242C217.062 20.4525 217.135 20.8641 217.135 21.3574C217.135 21.8506 217.062 22.2622 216.917 22.5905Z" fill="url(#paint1_linear_91_940)"/>
<path d="M45.0591 36.3153V32.2126H46.4455C46.7671 32.2126 47.0304 32.2709 47.2354 32.3859C47.4404 32.5009 47.5937 32.6575 47.692 32.8542C47.7903 33.0491 47.8403 33.2691 47.8403 33.5107C47.8403 33.7523 47.792 33.9723 47.692 34.1706C47.5937 34.3673 47.442 34.5256 47.2387 34.6422C47.0354 34.7589 46.7721 34.8172 46.4522 34.8172H45.459V34.3773H46.4355C46.6572 34.3773 46.8338 34.3389 46.9671 34.2623C47.1004 34.1856 47.1987 34.0823 47.2587 33.9523C47.3187 33.8223 47.3504 33.6757 47.3504 33.5107C47.3504 33.3457 47.3204 33.1991 47.2587 33.0691C47.1987 32.9408 47.1004 32.8375 46.9655 32.7642C46.8305 32.6892 46.6505 32.6525 46.4289 32.6525H45.5557V36.3153H45.0591Z" fill="#010101"/>
<path d="M49.4835 36.3886C49.2885 36.3886 49.1119 36.3519 48.9536 36.2769C48.7936 36.2019 48.6669 36.0953 48.5753 35.9536C48.482 35.8137 48.4353 35.642 48.4353 35.4421C48.4353 35.2654 48.4703 35.1221 48.5403 35.0121C48.6086 34.9021 48.7019 34.8155 48.8186 34.7522C48.9352 34.6905 49.0635 34.6422 49.2052 34.6122C49.3452 34.5805 49.4868 34.5555 49.6301 34.5372C49.8168 34.5122 49.9684 34.4939 50.085 34.4822C50.2017 34.4689 50.2867 34.4489 50.3417 34.4172C50.3967 34.3872 50.4233 34.3322 50.4233 34.2572V34.2406C50.4233 34.0439 50.37 33.8889 50.2617 33.779C50.155 33.6706 49.9917 33.6157 49.7751 33.6157C49.5485 33.6157 49.3718 33.664 49.2435 33.764C49.1152 33.864 49.0252 33.9689 48.9736 34.0806L48.5253 33.9206C48.6053 33.734 48.7119 33.5873 48.8469 33.4824C48.9802 33.3774 49.1285 33.304 49.2885 33.2607C49.4485 33.2191 49.6051 33.1974 49.7601 33.1974C49.8584 33.1974 49.9717 33.2091 50.1017 33.2324C50.23 33.2557 50.355 33.304 50.4766 33.3757C50.5983 33.4474 50.6983 33.5557 50.7783 33.7023C50.8583 33.849 50.8983 34.0423 50.8983 34.2872V36.3152H50.4267V35.8986H50.4017C50.37 35.9653 50.3167 36.0369 50.2417 36.1136C50.1667 36.1903 50.0667 36.2536 49.9434 36.3069C49.8134 36.3602 49.6618 36.3886 49.4835 36.3886ZM49.5551 35.9636C49.7418 35.9636 49.9001 35.927 50.0284 35.8536C50.1567 35.7803 50.255 35.6853 50.3217 35.5703C50.3867 35.4537 50.4217 35.3321 50.4217 35.2037V34.7705C50.4017 34.7955 50.3583 34.8171 50.29 34.8355C50.2234 34.8555 50.145 34.8705 50.0567 34.8855C49.9701 34.9005 49.8851 34.9121 49.8018 34.9221C49.7201 34.9321 49.6534 34.9404 49.6035 34.9471C49.4801 34.9638 49.3652 34.9888 49.2602 35.0238C49.1552 35.0588 49.0685 35.1121 49.0036 35.1821C48.9386 35.2521 48.9069 35.347 48.9069 35.467C48.9069 35.632 48.9686 35.7553 49.0902 35.8387C49.2119 35.9203 49.3668 35.9636 49.5551 35.9636Z" fill="#010101"/>
<path d="M51.5664 35.5304H52.0713C52.083 35.6687 52.1463 35.7753 52.2613 35.847C52.3763 35.9186 52.5263 35.9553 52.7129 35.9553C52.9029 35.9553 53.0645 35.917 53.1995 35.8387C53.3345 35.7603 53.4011 35.6337 53.4011 35.4587C53.4011 35.3554 53.3761 35.2654 53.3245 35.1888C53.2728 35.1121 53.2028 35.0521 53.1095 35.0104C53.0178 34.9671 52.9095 34.9471 52.7829 34.9471H52.2546V34.5222H52.7829C52.9712 34.5222 53.1112 34.4789 53.2011 34.3939C53.2911 34.3072 53.3361 34.2006 53.3361 34.0723C53.3361 33.9356 53.2878 33.824 53.1895 33.7406C53.0928 33.6573 52.9545 33.6157 52.7762 33.6157C52.5962 33.6157 52.4446 33.6556 52.3246 33.7356C52.2046 33.8173 52.1413 33.9206 52.1346 34.0473H51.6381C51.6431 33.8806 51.693 33.7357 51.7897 33.6073C51.8864 33.4807 52.018 33.379 52.183 33.3074C52.3496 33.2341 52.5379 33.1974 52.7512 33.1974C52.9679 33.1974 53.1562 33.2357 53.3145 33.3107C53.4744 33.3857 53.5977 33.4873 53.6861 33.6173C53.7727 33.7456 53.8161 33.8923 53.8161 34.0556C53.8161 34.2289 53.7677 34.3705 53.6694 34.4755C53.5711 34.5822 53.4494 34.6588 53.3028 34.7038V34.7355C53.4194 34.7438 53.5211 34.7805 53.6061 34.8471C53.6927 34.9138 53.7594 35.0005 53.8077 35.1054C53.856 35.2104 53.8794 35.3287 53.8794 35.457C53.8794 35.6437 53.8294 35.807 53.7294 35.9453C53.6294 36.0836 53.4911 36.1903 53.3178 36.2652C53.1428 36.3402 52.9429 36.3786 52.7179 36.3786C52.4996 36.3786 52.3046 36.3436 52.133 36.2719C51.9613 36.2003 51.8247 36.1003 51.723 35.9736C51.6247 35.847 51.5714 35.6987 51.5664 35.5304Z" fill="#010101"/>
<path d="M54.5476 36.3154V33.2376H55.8057C56.1374 33.2376 56.4006 33.3126 56.5956 33.4625C56.7906 33.6125 56.8889 33.8091 56.8889 34.0558C56.8889 34.2424 56.8339 34.3874 56.7223 34.4907C56.6106 34.5924 56.469 34.6623 56.2957 34.6973C56.409 34.714 56.519 34.7523 56.6273 34.8173C56.7339 34.8807 56.8239 34.9706 56.8939 35.0806C56.9639 35.1906 57.0006 35.3289 57.0006 35.4905C57.0006 35.6489 56.9606 35.7888 56.8806 35.9122C56.8006 36.0371 56.6856 36.1355 56.5373 36.2071C56.3873 36.2788 56.209 36.3154 56.0007 36.3154H54.5476ZM54.9975 34.529H55.8074C55.9341 34.529 56.0424 34.5107 56.134 34.4757C56.2257 34.4407 56.2957 34.3891 56.3423 34.3241C56.3906 34.2574 56.4156 34.1791 56.4156 34.0874C56.4156 33.9591 56.3623 33.8558 56.254 33.7825C56.1457 33.7075 55.9974 33.6708 55.8074 33.6708H54.9975V34.529ZM54.9975 35.8838H55.999C56.1623 35.8838 56.289 35.8455 56.3823 35.7672C56.474 35.6889 56.5206 35.5839 56.5206 35.4506C56.5206 35.2922 56.474 35.1673 56.3823 35.0756C56.289 34.984 56.1623 34.939 55.999 34.939H54.9975V35.8838Z" fill="#010101"/>
<path d="M58.1854 35.6187L59.6685 33.2391H60.2134V36.3169H59.7402V33.9373L58.2654 36.3169H57.7122V33.2391H58.1854V35.6187Z" fill="#010101"/>
<path d="M61.0798 36.3154V33.2376H62.338C62.6696 33.2376 62.9329 33.3126 63.1279 33.4625C63.3228 33.6125 63.4211 33.8091 63.4211 34.0558C63.4211 34.2424 63.3662 34.3874 63.2545 34.4907C63.1429 34.5924 63.0012 34.6623 62.8279 34.6973C62.9412 34.714 63.0512 34.7523 63.1595 34.8173C63.2662 34.8807 63.3561 34.9706 63.4261 35.0806C63.4961 35.1923 63.5328 35.3289 63.5328 35.4905C63.5328 35.6489 63.4928 35.7888 63.4128 35.9122C63.3328 36.0371 63.2178 36.1355 63.0695 36.2071C62.9195 36.2788 62.7412 36.3154 62.5329 36.3154H61.0798ZM61.5281 34.529H62.338C62.4646 34.529 62.5729 34.5107 62.6646 34.4757C62.7562 34.4407 62.8262 34.3891 62.8729 34.3241C62.9212 34.2574 62.9462 34.1791 62.9462 34.0874C62.9462 33.9591 62.8929 33.8558 62.7846 33.7825C62.6763 33.7075 62.5279 33.6708 62.338 33.6708H61.5281V34.529ZM61.5281 35.8838H62.5296C62.6929 35.8838 62.8196 35.8455 62.9129 35.7672C63.0045 35.6889 63.0512 35.5839 63.0512 35.4506C63.0512 35.2922 63.0045 35.1673 62.9129 35.0756C62.8196 34.984 62.6929 34.939 62.5296 34.939H61.5281V35.8838Z" fill="#010101"/>
<path d="M65.1492 36.3886C64.9543 36.3886 64.7776 36.3519 64.6193 36.2769C64.4593 36.2019 64.3327 36.0953 64.2411 35.9536C64.1477 35.8137 64.1011 35.642 64.1011 35.4421C64.1011 35.2654 64.1361 35.1221 64.2061 35.0121C64.2744 34.9021 64.3677 34.8155 64.4843 34.7522C64.601 34.6905 64.7293 34.6422 64.871 34.6122C65.0109 34.5805 65.1526 34.5555 65.2959 34.5372C65.4825 34.5122 65.6342 34.4939 65.7508 34.4822C65.8675 34.4689 65.9525 34.4489 66.0074 34.4172C66.0624 34.3872 66.0891 34.3322 66.0891 34.2572V34.2406C66.0891 34.0439 66.0358 33.8889 65.9275 33.779C65.8208 33.6706 65.6575 33.6157 65.4409 33.6157C65.2142 33.6157 65.0376 33.664 64.9093 33.764C64.781 33.864 64.691 33.9689 64.6393 34.0806L64.1911 33.9206C64.2711 33.734 64.3777 33.5873 64.5127 33.4824C64.646 33.3774 64.7943 33.304 64.9543 33.2607C65.1142 33.2191 65.2709 33.1974 65.4259 33.1974C65.5242 33.1974 65.6375 33.2091 65.7675 33.2324C65.8958 33.2557 66.0208 33.304 66.1424 33.3757C66.2641 33.4474 66.3641 33.5557 66.444 33.7023C66.524 33.849 66.564 34.0423 66.564 34.2872V36.3152H66.0924V35.8986H66.0674C66.0358 35.9653 65.9825 36.0369 65.9075 36.1136C65.8325 36.1903 65.7325 36.2536 65.6092 36.3069C65.4809 36.3602 65.3292 36.3886 65.1492 36.3886ZM65.2226 35.9636C65.4092 35.9636 65.5675 35.927 65.6958 35.8536C65.8241 35.7803 65.9225 35.6853 65.9891 35.5703C66.0541 35.4537 66.0891 35.3321 66.0891 35.2037V34.7705C66.0691 34.7955 66.0258 34.8171 65.9575 34.8355C65.8891 34.8538 65.8125 34.8705 65.7242 34.8855C65.6375 34.9005 65.5525 34.9121 65.4692 34.9221C65.3875 34.9321 65.3209 34.9404 65.2709 34.9471C65.1476 34.9638 65.0326 34.9888 64.9276 35.0238C64.8226 35.0588 64.736 35.1121 64.671 35.1821C64.606 35.2521 64.5743 35.347 64.5743 35.467C64.5743 35.632 64.636 35.7553 64.7576 35.8387C64.8776 35.9203 65.0343 35.9636 65.2226 35.9636Z" fill="#010101"/>
<path d="M67.6739 33.2374V36.3153H67.2007V33.2374H67.6739ZM68.9004 34.5839V35.0255H67.274V34.5839H68.9004ZM69.8469 36.3803C69.5686 36.3803 69.3254 36.3153 69.117 36.182C68.9087 36.0487 68.7454 35.8654 68.6288 35.6271C68.5121 35.3888 68.4538 35.1105 68.4538 34.7939C68.4538 34.4739 68.5121 34.194 68.6288 33.954C68.7454 33.7157 68.9087 33.5291 69.117 33.3974C69.3254 33.2658 69.5686 33.1991 69.8469 33.1991C70.1252 33.1991 70.3685 33.2658 70.5768 33.3974C70.7851 33.5291 70.9484 33.7157 71.0651 33.954C71.1817 34.194 71.24 34.4739 71.24 34.7939C71.24 35.1122 71.1817 35.3904 71.0651 35.6271C70.9484 35.8654 70.7851 36.0487 70.5768 36.182C70.3685 36.3153 70.1252 36.3803 69.8469 36.3803ZM69.8469 35.9554C70.0569 35.9554 70.2319 35.902 70.3685 35.7937C70.5052 35.6854 70.6051 35.5437 70.6718 35.3671C70.7368 35.1905 70.7701 34.9988 70.7701 34.7939C70.7701 34.5889 70.7368 34.3973 70.6718 34.219C70.6068 34.0406 70.5052 33.8973 70.3685 33.7874C70.2319 33.6774 70.0586 33.6224 69.8469 33.6224C69.637 33.6224 69.462 33.6774 69.3254 33.7874C69.1904 33.8973 69.0887 34.0406 69.0221 34.219C68.9571 34.3973 68.9237 34.5889 68.9237 34.7939C68.9237 34.9988 68.9571 35.1905 69.0221 35.3671C69.0871 35.5437 69.1887 35.6854 69.3254 35.7937C69.462 35.9004 69.6353 35.9554 69.8469 35.9554Z" fill="#010101"/>
<path d="M72.0098 33.2376H72.483V35.8738H73.6445V33.2376H74.1178V35.8738H75.2809V33.2376H75.7525V36.3154H72.0098V33.2376ZM76.2091 35.8755L76.1541 37.1986H75.6659V36.3171H75.2659V35.8755H76.2091Z" fill="#010101"/>
<path d="M77.3724 35.6187L78.8555 33.2391H79.4004V36.3169H78.9272V33.9373L77.4524 36.3169H76.8992V33.2391H77.3724V35.6187Z" fill="#010101"/>
<path d="M81.5549 36.3801C81.2583 36.3801 81.0033 36.3151 80.7883 36.1835C80.5734 36.0518 80.4084 35.8669 80.2934 35.6302C80.1784 35.3936 80.1201 35.117 80.1201 34.802C80.1201 34.4871 80.1784 34.2088 80.2934 33.9688C80.4084 33.7272 80.57 33.5389 80.7783 33.4039C80.985 33.2689 81.2283 33.2006 81.5066 33.2006C81.6666 33.2006 81.8249 33.2273 81.9815 33.2806C82.1381 33.3339 82.2798 33.4206 82.4081 33.5406C82.5364 33.6605 82.6381 33.8172 82.7147 34.0138C82.7914 34.2105 82.828 34.4521 82.828 34.7387V34.9387H80.4551V34.5304H82.3464C82.3464 34.3571 82.3114 34.2021 82.2431 34.0655C82.1748 33.9288 82.0765 33.8222 81.9498 33.7422C81.8248 33.6639 81.6749 33.6239 81.5049 33.6239C81.3166 33.6239 81.1533 33.6705 81.0166 33.7622C80.88 33.8538 80.775 33.9755 80.7017 34.1238C80.6284 34.2721 80.5917 34.4321 80.5917 34.6004V34.872C80.5917 35.1053 80.6317 35.302 80.7134 35.4619C80.795 35.6219 80.9067 35.7452 81.05 35.8285C81.1933 35.9119 81.3616 35.9535 81.5532 35.9535C81.6765 35.9535 81.7899 35.9352 81.8898 35.9002C81.9915 35.8652 82.0782 35.8119 82.1515 35.7402C82.2248 35.6686 82.2814 35.5802 82.3214 35.4736L82.778 35.6019C82.7297 35.7569 82.6497 35.8935 82.5364 36.0102C82.4231 36.1268 82.2831 36.2168 82.1165 36.2818C81.9498 36.3468 81.7632 36.3801 81.5549 36.3801Z" fill="#010101"/>
<path d="M85.6109 35.6187L87.0941 33.2391H87.639V36.3169H87.1657V33.9373L85.691 36.3169H85.1377V33.2391H85.6109V35.6187Z" fill="#010101"/>
<path d="M90.4019 33.2376V33.6792H88.9755V36.3154H88.5022V33.2376H90.4019Z" fill="#010101"/>
<path d="M91.0918 37.4701V33.239H91.5484V33.7273H91.6051C91.6401 33.674 91.6884 33.6057 91.75 33.5223C91.8117 33.439 91.9017 33.364 92.0183 33.2974C92.135 33.2307 92.2933 33.1974 92.4949 33.1974C92.7532 33.1974 92.9815 33.2624 93.1798 33.3924C93.3764 33.5207 93.5314 33.7057 93.6431 33.9423C93.7531 34.1806 93.8097 34.4605 93.8097 34.7838C93.8097 35.1104 93.7547 35.3921 93.6431 35.6304C93.5314 35.8687 93.3781 36.0536 93.1815 36.1836C92.9848 36.3136 92.7599 36.3786 92.5016 36.3786C92.305 36.3786 92.145 36.3452 92.0266 36.2786C91.9083 36.2136 91.8167 36.1386 91.7534 36.0519C91.6884 35.967 91.6401 35.897 91.6051 35.8403H91.5651V37.4667H91.0918V37.4701ZM91.5567 34.7771C91.5567 35.0104 91.5901 35.2137 91.6584 35.3904C91.7267 35.567 91.8267 35.7053 91.9567 35.8053C92.0867 35.9053 92.2483 35.9553 92.4366 35.9553C92.6349 35.9553 92.7999 35.9036 92.9315 35.7986C93.0648 35.6937 93.1648 35.552 93.2331 35.3737C93.2998 35.1954 93.3348 34.9971 93.3348 34.7771C93.3348 34.5605 93.3014 34.3656 93.2348 34.1906C93.1698 34.0156 93.0698 33.8773 92.9365 33.7756C92.8049 33.674 92.6366 33.6223 92.4366 33.6223C92.245 33.6223 92.0833 33.6707 91.9517 33.7673C91.8217 33.864 91.7217 33.9989 91.655 34.1723C91.5901 34.3456 91.5567 34.5472 91.5567 34.7771Z" fill="#010101"/>
<path d="M94.7229 37.4616C94.6412 37.4616 94.5712 37.4549 94.5079 37.4432C94.4463 37.4299 94.4013 37.4182 94.378 37.4066L94.4979 36.99C94.6712 37.035 94.8145 37.0333 94.9295 36.9866C95.0445 36.94 95.1445 36.8033 95.2278 36.5734L95.3161 36.3334L94.178 33.2406H94.6912L95.5394 35.6935H95.5711L96.421 33.2406L96.9376 33.2489L95.6278 36.7667C95.5694 36.9233 95.4961 37.0533 95.4095 37.1566C95.3228 37.2599 95.2212 37.3366 95.1078 37.3883C94.9945 37.4399 94.8645 37.4616 94.7229 37.4616Z" fill="#010101"/>
<path d="M97.5625 33.2376H98.0358V35.8738H99.1972V33.2376H99.6705V35.8738H100.834V33.2376H101.305V36.3154H97.5625V33.2376Z" fill="#010101"/>
<path d="M102.17 36.3154V33.2376H102.643V34.5757H102.957L104.063 33.2376H104.671L103.43 34.719L104.688 36.3138H104.08L103.07 35.0156H102.645V36.3138H102.17V36.3154Z" fill="#010101"/>
<path d="M105.673 35.6187L107.156 33.2391H107.701V36.3169H107.228V33.9373L105.753 36.3169H105.2V33.2391H105.673V35.6187Z" fill="#010101"/>
<path d="M109.826 37.1969V35.8738H110.082C110.144 35.8088 110.199 35.7388 110.244 35.6622C110.289 35.5855 110.329 35.4956 110.364 35.3906C110.397 35.2856 110.427 35.1573 110.451 35.0056C110.476 34.854 110.496 34.6707 110.514 34.4557L110.619 33.2376H112.574V35.8738H113.047V37.1969H112.574V36.3154H110.297V37.1969H109.826ZM110.619 35.8755H112.1V33.6808H111.059L110.979 34.4574C110.946 34.779 110.904 35.0606 110.856 35.3006C110.807 35.5405 110.727 35.7322 110.619 35.8755Z" fill="#010101"/>
<path d="M113.398 36.3154V35.8738H113.51C113.603 35.8738 113.68 35.8555 113.74 35.8188C113.802 35.7822 113.852 35.7172 113.89 35.6239C113.928 35.5305 113.957 35.4022 113.978 35.2356C114 35.0689 114.013 34.8573 114.023 34.6007L114.078 33.2376H116.13V36.3154H115.656V33.6792H114.527L114.478 34.7773C114.468 35.0289 114.445 35.2522 114.412 35.4439C114.377 35.6355 114.325 35.7955 114.257 35.9255C114.188 36.0538 114.097 36.1521 113.983 36.2188C113.87 36.2838 113.728 36.3171 113.557 36.3171H113.398V36.3154Z" fill="#010101"/>
<path d="M116.796 36.3154L117.669 34.784H118.183L117.309 36.3154H116.796ZM118.847 36.3154V33.6708H118.031C117.846 33.6708 117.701 33.7142 117.596 33.7991C117.491 33.8858 117.438 34.0025 117.438 34.1508C117.438 34.2991 117.486 34.4141 117.581 34.4974C117.676 34.5807 117.808 34.6224 117.974 34.6224H118.967V35.064H117.974C117.766 35.064 117.586 35.0273 117.436 34.954C117.284 34.8806 117.169 34.7757 117.088 34.639C117.006 34.5024 116.966 34.3391 116.966 34.1508C116.966 33.9625 117.009 33.7992 117.094 33.6625C117.181 33.5259 117.303 33.4209 117.463 33.3476C117.623 33.2726 117.813 33.2376 118.034 33.2376H119.299V36.3154H118.847Z" fill="#010101"/>
<path d="M121.42 37.1969V35.8738H121.677C121.739 35.8088 121.794 35.7388 121.839 35.6622C121.884 35.5855 121.924 35.4956 121.959 35.3906C121.992 35.2856 122.022 35.1573 122.045 35.0056C122.07 34.854 122.09 34.6707 122.109 34.4557L122.214 33.2376H124.168V35.8738H124.642V37.1969H124.168V36.3154H121.892V37.1969H121.42ZM122.214 35.8755H123.695V33.6808H122.654L122.574 34.4574C122.54 34.779 122.499 35.0606 122.45 35.3006C122.4 35.5405 122.322 35.7322 122.214 35.8755Z" fill="#010101"/>
<path d="M126.558 36.3801C126.261 36.3801 126.006 36.3151 125.792 36.1835C125.577 36.0518 125.412 35.8669 125.297 35.6302C125.182 35.3936 125.123 35.117 125.123 34.802C125.123 34.4871 125.182 34.2088 125.297 33.9688C125.412 33.7272 125.573 33.5389 125.782 33.4039C125.988 33.2689 126.231 33.2006 126.51 33.2006C126.67 33.2006 126.828 33.2273 126.985 33.2806C127.141 33.3339 127.283 33.4206 127.411 33.5406C127.54 33.6605 127.641 33.8172 127.718 34.0138C127.795 34.2105 127.831 34.4521 127.831 34.7387V34.9387H125.458V34.5304H127.35C127.35 34.3571 127.315 34.2021 127.246 34.0655C127.178 33.9288 127.08 33.8222 126.953 33.7422C126.828 33.6639 126.678 33.6239 126.508 33.6239C126.32 33.6239 126.156 33.6705 126.02 33.7622C125.883 33.8538 125.778 33.9755 125.705 34.1238C125.632 34.2721 125.595 34.4321 125.595 34.6004V34.872C125.595 35.1053 125.635 35.302 125.717 35.4619C125.798 35.6219 125.91 35.7452 126.053 35.8285C126.196 35.9119 126.365 35.9535 126.556 35.9535C126.68 35.9535 126.793 35.9352 126.893 35.9002C126.995 35.8652 127.081 35.8119 127.155 35.7402C127.228 35.6686 127.285 35.5802 127.325 35.4736L127.781 35.6019C127.733 35.7569 127.653 35.8935 127.54 36.0102C127.426 36.1268 127.286 36.2168 127.12 36.2818C126.953 36.3468 126.766 36.3801 126.558 36.3801Z" fill="#010101"/>
<path d="M128.264 33.6792V33.2376H130.766V33.6792H129.756V36.3154H129.283V33.6792H128.264Z" fill="#010101"/>
<path d="M132.584 36.3801C132.287 36.3801 132.032 36.3151 131.817 36.1835C131.602 36.0518 131.437 35.8669 131.322 35.6302C131.207 35.3936 131.149 35.117 131.149 34.802C131.149 34.4871 131.207 34.2088 131.322 33.9688C131.437 33.7272 131.599 33.5389 131.807 33.4039C132.014 33.2689 132.257 33.2006 132.535 33.2006C132.695 33.2006 132.854 33.2273 133.01 33.2806C133.167 33.3339 133.309 33.4206 133.437 33.5406C133.565 33.6605 133.667 33.8172 133.744 34.0138C133.82 34.2105 133.857 34.4521 133.857 34.7387V34.9387H131.484V34.5304H133.375C133.375 34.3571 133.34 34.2021 133.272 34.0655C133.204 33.9288 133.105 33.8222 132.979 33.7422C132.854 33.6639 132.704 33.6239 132.534 33.6239C132.345 33.6239 132.182 33.6705 132.045 33.7622C131.909 33.8538 131.804 33.9755 131.73 34.1238C131.657 34.2721 131.621 34.4321 131.621 34.6004V34.872C131.621 35.1053 131.661 35.302 131.742 35.4619C131.824 35.6219 131.935 35.7452 132.079 35.8285C132.222 35.9119 132.39 35.9535 132.582 35.9535C132.705 35.9535 132.819 35.9352 132.919 35.9002C133.02 35.8652 133.107 35.8119 133.18 35.7402C133.254 35.6686 133.31 35.5802 133.35 35.4736L133.807 35.6019C133.759 35.7569 133.679 35.8935 133.565 36.0102C133.452 36.1268 133.312 36.2168 133.145 36.2818C132.979 36.3468 132.792 36.3801 132.584 36.3801Z" fill="#010101"/>
<path d="M135.053 35.6187L136.536 33.239H137.081V36.3169H136.608V33.9373L135.133 36.3169H134.58V33.239H135.053V35.6187ZM136.223 32.2125H136.665C136.665 32.4292 136.59 32.6058 136.44 32.7441C136.29 32.8808 136.087 32.9508 135.83 32.9508C135.578 32.9508 135.377 32.8824 135.228 32.7441C135.078 32.6075 135.005 32.4292 135.005 32.2125H135.447C135.447 32.3175 135.475 32.4075 135.533 32.4875C135.592 32.5658 135.692 32.6058 135.832 32.6058C135.972 32.6058 136.073 32.5658 136.133 32.4875C136.193 32.4075 136.223 32.3175 136.223 32.2125Z" fill="#010101"/>
<path d="M140.004 35.6187L141.487 33.2391H142.032V36.3169H141.559V33.9373L140.084 36.3169H139.531V33.2391H140.004V35.6187Z" fill="#010101"/>
<path d="M144.485 36.3154V33.2376H145.743C146.075 33.2376 146.338 33.3126 146.533 33.4625C146.728 33.6125 146.826 33.8091 146.826 34.0558C146.826 34.2424 146.771 34.3874 146.66 34.4907C146.548 34.5924 146.406 34.6623 146.233 34.6973C146.346 34.714 146.456 34.7523 146.565 34.8173C146.671 34.8807 146.761 34.9706 146.831 35.0806C146.901 35.1923 146.938 35.3289 146.938 35.4905C146.938 35.6489 146.898 35.7888 146.818 35.9122C146.738 36.0371 146.623 36.1355 146.475 36.2071C146.325 36.2788 146.147 36.3154 145.938 36.3154H144.485ZM144.933 34.529H145.743C145.87 34.529 145.978 34.5107 146.07 34.4757C146.162 34.4407 146.232 34.3891 146.278 34.3241C146.326 34.2574 146.351 34.1791 146.351 34.0874C146.351 33.9591 146.298 33.8558 146.19 33.7825C146.082 33.7075 145.933 33.6708 145.743 33.6708H144.933V34.529ZM144.933 35.8838H145.935C146.098 35.8838 146.225 35.8455 146.318 35.7672C146.41 35.6889 146.456 35.5839 146.456 35.4506C146.456 35.2922 146.41 35.1673 146.318 35.0756C146.225 34.984 146.098 34.939 145.935 34.939H144.933V35.8838Z" fill="#010101"/>
<path d="M147.458 35.5304H147.963C147.975 35.6687 148.038 35.7753 148.153 35.847C148.268 35.9186 148.418 35.9553 148.604 35.9553C148.794 35.9553 148.956 35.917 149.091 35.8387C149.226 35.7603 149.293 35.6337 149.293 35.4587C149.293 35.3554 149.268 35.2654 149.216 35.1888C149.164 35.1121 149.094 35.0521 149.001 35.0104C148.909 34.9671 148.801 34.9471 148.674 34.9471H148.146V34.5222H148.674C148.863 34.5222 149.003 34.4789 149.093 34.3939C149.183 34.3072 149.228 34.2006 149.228 34.0723C149.228 33.9356 149.179 33.824 149.081 33.7406C148.984 33.6573 148.846 33.6157 148.668 33.6157C148.488 33.6157 148.336 33.6556 148.216 33.7356C148.096 33.8173 148.033 33.9206 148.026 34.0473H147.53C147.535 33.8806 147.585 33.7357 147.681 33.6073C147.778 33.4807 147.91 33.379 148.075 33.3074C148.241 33.2341 148.431 33.1974 148.643 33.1974C148.859 33.1974 149.048 33.2357 149.206 33.3107C149.366 33.3857 149.489 33.4873 149.578 33.6173C149.664 33.7456 149.708 33.8923 149.708 34.0556C149.708 34.2289 149.659 34.3705 149.561 34.4755C149.463 34.5822 149.341 34.6588 149.194 34.7038V34.7355C149.311 34.7438 149.413 34.7805 149.498 34.8471C149.584 34.9138 149.651 35.0005 149.699 35.1054C149.748 35.2121 149.771 35.3287 149.771 35.457C149.771 35.6437 149.721 35.807 149.621 35.9453C149.521 36.0836 149.383 36.1903 149.209 36.2652C149.034 36.3402 148.834 36.3786 148.609 36.3786C148.391 36.3786 148.196 36.3436 148.025 36.2719C147.853 36.2003 147.716 36.1003 147.615 35.9736C147.516 35.847 147.463 35.6987 147.458 35.5304Z" fill="#010101"/>
<path d="M150.439 37.4701V33.239H150.896V33.7273H150.952C150.987 33.674 151.036 33.6057 151.097 33.5223C151.159 33.439 151.249 33.364 151.366 33.2974C151.482 33.2307 151.641 33.1974 151.842 33.1974C152.101 33.1974 152.329 33.2624 152.527 33.3924C152.724 33.5207 152.879 33.7057 152.99 33.9423C153.1 34.1806 153.157 34.4605 153.157 34.7838C153.157 35.1104 153.102 35.3921 152.99 35.6304C152.879 35.8687 152.726 36.0536 152.529 36.1836C152.332 36.3136 152.107 36.3786 151.849 36.3786C151.652 36.3786 151.492 36.3452 151.374 36.2786C151.256 36.2136 151.164 36.1386 151.101 36.0519C151.036 35.967 150.987 35.897 150.952 35.8403H150.912V37.4667H150.439V37.4701ZM150.904 34.7771C150.904 35.0104 150.937 35.2137 151.006 35.3904C151.074 35.567 151.174 35.7053 151.304 35.8053C151.434 35.9053 151.596 35.9553 151.784 35.9553C151.982 35.9553 152.147 35.9036 152.279 35.7986C152.412 35.6937 152.512 35.552 152.581 35.3737C152.647 35.1954 152.682 34.9971 152.682 34.7771C152.682 34.5605 152.649 34.3656 152.582 34.1906C152.517 34.0156 152.417 33.8773 152.284 33.7756C152.152 33.674 151.984 33.6223 151.784 33.6223C151.592 33.6223 151.431 33.6707 151.299 33.7673C151.169 33.864 151.069 33.9989 151.002 34.1723C150.937 34.3456 150.904 34.5472 150.904 34.7771Z" fill="#010101"/>
<path d="M155.127 36.3803C154.85 36.3803 154.605 36.3153 154.397 36.182C154.189 36.0487 154.025 35.8654 153.909 35.6271C153.792 35.3888 153.734 35.1105 153.734 34.7939C153.734 34.4739 153.792 34.194 153.909 33.954C154.025 33.7157 154.189 33.5291 154.397 33.3974C154.605 33.2658 154.85 33.1991 155.127 33.1991C155.405 33.1991 155.648 33.2658 155.857 33.3974C156.065 33.5291 156.23 33.7157 156.345 33.954C156.462 34.194 156.52 34.4739 156.52 34.7939C156.52 35.1122 156.462 35.3904 156.345 35.6271C156.228 35.8654 156.065 36.0487 155.857 36.182C155.648 36.3136 155.405 36.3803 155.127 36.3803ZM155.127 35.9554C155.338 35.9554 155.512 35.902 155.648 35.7937C155.785 35.6854 155.885 35.5437 155.952 35.3671C156.017 35.1905 156.05 34.9988 156.05 34.7939C156.05 34.5889 156.018 34.3973 155.952 34.219C155.885 34.0406 155.785 33.8973 155.648 33.7874C155.512 33.6774 155.338 33.6224 155.127 33.6224C154.917 33.6224 154.742 33.6774 154.605 33.7874C154.47 33.8973 154.369 34.0406 154.302 34.219C154.237 34.3973 154.204 34.5889 154.204 34.7939C154.204 34.9988 154.237 35.1905 154.302 35.3671C154.367 35.5437 154.469 35.6854 154.605 35.7937C154.742 35.9004 154.917 35.9554 155.127 35.9554Z" fill="#010101"/>
<path d="M158.493 36.3803C158.205 36.3803 157.956 36.312 157.748 36.177C157.54 36.0403 157.38 35.852 157.268 35.6137C157.157 35.3738 157.1 35.1005 157.1 34.7939C157.1 34.4806 157.158 34.2056 157.273 33.9657C157.388 33.7257 157.55 33.5391 157.758 33.4024C157.965 33.2674 158.208 33.1991 158.486 33.1991C158.703 33.1991 158.898 33.2391 159.071 33.3191C159.245 33.3991 159.386 33.5107 159.498 33.6557C159.608 33.8007 159.678 33.969 159.704 34.1606H159.231C159.195 34.0207 159.115 33.8957 158.991 33.7874C158.868 33.679 158.701 33.6241 158.493 33.6241C158.31 33.6241 158.148 33.6724 158.01 33.7674C157.871 33.8623 157.765 33.9973 157.688 34.1706C157.611 34.3439 157.573 34.5456 157.573 34.7789C157.573 35.0172 157.611 35.2238 157.686 35.4004C157.763 35.5771 157.87 35.7137 158.008 35.8104C158.146 35.907 158.308 35.957 158.495 35.957C158.618 35.957 158.73 35.9354 158.83 35.8937C158.93 35.852 159.015 35.7904 159.085 35.7104C159.153 35.6304 159.203 35.5338 159.233 35.4204H159.706C159.679 35.6021 159.613 35.7654 159.508 35.9104C159.403 36.0553 159.265 36.1703 159.095 36.2553C158.92 36.337 158.721 36.3803 158.493 36.3803Z" fill="#010101"/>
<path d="M160.119 36.3154V35.8738H160.231C160.324 35.8738 160.401 35.8555 160.461 35.8188C160.523 35.7822 160.573 35.7172 160.611 35.6239C160.649 35.5305 160.678 35.4022 160.699 35.2356C160.721 35.0689 160.734 34.8573 160.744 34.6007L160.799 33.2376H162.851V36.3154H162.377V33.6792H161.248L161.199 34.7773C161.189 35.0289 161.166 35.2522 161.133 35.4439C161.098 35.6355 161.046 35.7955 160.978 35.9255C160.909 36.0538 160.818 36.1521 160.704 36.2188C160.591 36.2838 160.449 36.3171 160.278 36.3171H160.119V36.3154Z" fill="#010101"/>
<path d="M164.127 34.3524H165.009C165.369 34.3524 165.645 34.4441 165.835 34.6274C166.027 34.8107 166.122 35.0423 166.122 35.3222C166.122 35.5072 166.079 35.6739 165.994 35.8255C165.909 35.9755 165.784 36.0955 165.617 36.1838C165.452 36.2721 165.249 36.3171 165.009 36.3171H163.717V33.2392H164.191V35.8755H165.009C165.195 35.8755 165.349 35.8272 165.469 35.7272C165.589 35.6289 165.649 35.5022 165.649 35.3472C165.649 35.1839 165.589 35.0506 165.469 34.949C165.349 34.8456 165.195 34.794 165.009 34.794H164.127V34.3524ZM166.612 36.3154V33.2376H167.085V36.3154H166.612Z" fill="#010101"/>
<path d="M168.303 33.2376L169.04 34.4957L169.778 33.2376H170.323L169.33 34.7757L170.323 36.3138H169.778L169.04 35.1206L168.303 36.3138H167.758L168.736 34.7757L167.758 33.2376H168.303Z" fill="#010101"/>
<path d="M29.05 18.0082C24.0875 17.8049 20.2148 13.6022 20.4181 8.63962C20.6214 3.67707 24.824 -0.195649 29.7866 0.00765209C34.7491 0.210954 38.6219 4.41362 38.4186 9.37618C38.2169 14.3387 34.0143 18.2115 29.05 18.0082ZM29.575 5.17351C27.4603 5.08686 25.6689 6.73659 25.5823 8.85126C25.4956 10.9659 27.1453 12.7573 29.26 12.8423C31.3747 12.929 33.1661 11.2792 33.251 9.16454C33.341 7.04987 31.6896 5.26016 29.575 5.17351Z" fill="url(#paint2_linear_91_940)"/>
<path d="M8.72811 8.69626L0.109456 22.3058C-0.178832 22.7624 0.134455 23.3606 0.67437 23.3823L16.7702 24.0405C17.3101 24.0622 17.6717 23.4923 17.4201 23.014L9.94292 8.74457C9.69129 8.26798 9.0164 8.23966 8.72811 8.69626Z" fill="#76C591"/>
<path d="M30.728 9.06141C30.698 9.78463 30.0864 10.3479 29.3632 10.3179C28.64 10.2879 28.0784 9.67631 28.1067 8.95309C28.1367 8.22987 28.7466 7.66664 29.4699 7.69663C30.1947 7.72663 30.758 8.33819 30.728 9.06141Z" fill="#76C591"/>
<path d="M15.7436 43.9941L6.92667 34.4256C5.22027 32.5726 5.33692 29.6864 7.18997 27.98L16.7585 19.1647C18.6115 17.4583 21.4961 17.5749 23.2041 19.4279L32.0194 28.9965C33.7258 30.8495 33.6092 33.7341 31.7561 35.4421L22.1876 44.2591C20.3362 45.9638 17.45 45.8455 15.7436 43.9941ZM11.7842 32.0677L18.4899 39.3465C18.8448 39.7314 19.4447 39.7564 19.8296 39.4015L27.1085 32.6959C27.4934 32.3409 27.5184 31.741 27.1635 31.3561L20.4579 24.0772C20.1029 23.6923 19.503 23.6673 19.1181 24.0222L11.8392 30.7279C11.4543 31.0811 11.4293 31.681 11.7842 32.0677Z" fill="url(#paint3_linear_91_940)"/>
<path d="M29.4183 9.00797L19.4749 31.7111" stroke="#76C591" stroke-width="0.9073" stroke-miterlimit="10"/>
<path d="M19.4749 32.9624C20.166 32.9624 20.7263 32.4021 20.7263 31.7109C20.7263 31.0198 20.166 30.4595 19.4749 30.4595C18.7837 30.4595 18.2234 31.0198 18.2234 31.7109C18.2234 32.4021 18.7837 32.9624 19.4749 32.9624Z" fill="#82C2EB"/>
<defs>
<linearGradient id="paint0_linear_91_940" x1="201.595" y1="0.882798" x2="201.595" y2="20.462" gradientUnits="userSpaceOnUse">
<stop offset="0.00035903" stop-color="#FEEB8A"/>
<stop offset="0.2675" stop-color="#F8C3A8"/>
<stop offset="0.5391" stop-color="#F59BB6"/>
<stop offset="0.6841" stop-color="#F497B5"/>
<stop offset="0.8639" stop-color="#F28BB1"/>
<stop offset="0.9989" stop-color="#EF7FAD"/>
</linearGradient>
<linearGradient id="paint1_linear_91_940" x1="213.324" y1="0.882601" x2="213.324" y2="20.4618" gradientUnits="userSpaceOnUse">
<stop offset="0.00035903" stop-color="#FEEB8A"/>
<stop offset="0.2675" stop-color="#F8C3A8"/>
<stop offset="0.5391" stop-color="#F59BB6"/>
<stop offset="0.6841" stop-color="#F497B5"/>
<stop offset="0.8639" stop-color="#F28BB1"/>
<stop offset="0.9989" stop-color="#EF7FAD"/>
</linearGradient>
<linearGradient id="paint2_linear_91_940" x1="20.4563" y1="11.6205" x2="37.7603" y2="6.59745" gradientUnits="userSpaceOnUse">
<stop stop-color="#B1DCF5"/>
<stop offset="0.9985" stop-color="#82C2EB"/>
</linearGradient>
<linearGradient id="paint3_linear_91_940" x1="22.6915" y1="44.6166" x2="13.8645" y2="9.23549" gradientUnits="userSpaceOnUse">
<stop offset="0.00035903" stop-color="#FEEB8A"/>
<stop offset="0.2675" stop-color="#F8C3A8"/>
<stop offset="0.5391" stop-color="#F59BB6"/>
<stop offset="0.6841" stop-color="#F497B5"/>
<stop offset="0.8639" stop-color="#F28BB1"/>
<stop offset="0.9989" stop-color="#EF7FAD"/>
</linearGradient>
</defs>
</svg>
